<?xml version="1.0" encoding="UTF-8"?>
<!-- Do not edit this file with editors other than draw.io -->
<!DOCTYPE svg PUBLIC "-//W3C//DTD SVG 1.1//EN" "http://www.w3.org/Graphics/SVG/1.1/DTD/svg11.dtd">
<svg xmlns="http://www.w3.org/2000/svg" style="background: transparent; background-color: transparent; color-scheme: light dark;" xmlns:xlink="http://www.w3.org/1999/xlink" version="1.1" width="49px" height="52px" viewBox="-0.5 -0.5 49 52" content="&lt;mxfile host=&quot;Electron&quot; agent=&quot;Mozilla/5.0 (Windows NT 10.0; Win64; x64) AppleWebKit/537.36 (KHTML, like Gecko) draw.io/28.1.2 Chrome/138.0.7204.243 Electron/37.4.0 Safari/537.36&quot; version=&quot;28.1.2&quot; scale=&quot;1&quot; border=&quot;0&quot;&gt;&#10;  &lt;diagram name=&quot;Page-1&quot; id=&quot;UnhPXc5wo-QIKs3OsoUQ&quot;&gt;&#10;    &lt;mxGraphModel dx=&quot;2893&quot; dy=&quot;1201&quot; grid=&quot;1&quot; gridSize=&quot;10&quot; guides=&quot;1&quot; tooltips=&quot;1&quot; connect=&quot;1&quot; arrows=&quot;1&quot; fold=&quot;1&quot; page=&quot;1&quot; pageScale=&quot;1&quot; pageWidth=&quot;827&quot; pageHeight=&quot;1169&quot; math=&quot;0&quot; shadow=&quot;0&quot;&gt;&#10;      &lt;root&gt;&#10;        &lt;mxCell id=&quot;0&quot; /&gt;&#10;        &lt;mxCell id=&quot;1&quot; parent=&quot;0&quot; /&gt;&#10;        &lt;mxCell id=&quot;2&quot; value=&quot;&quot; style=&quot;points=[];aspect=fixed;html=1;align=center;shadow=0;dashed=0;fillColor=#036897;strokeColor=#FFFFFF;shape=mxgraph.alibaba_cloud.hsm_hardware_security_module;strokeWidth=2;&quot; vertex=&quot;1&quot; parent=&quot;1&quot;&gt;&#10;          &lt;mxGeometry x=&quot;-400&quot; y=&quot;350&quot; width=&quot;46.5&quot; height=&quot;49.5&quot; as=&quot;geometry&quot; /&gt;&#10;        &lt;/mxCell&gt;&#10;      &lt;/root&gt;&#10;    &lt;/mxGraphModel&gt;&#10;  &lt;/diagram&gt;&#10;&lt;/mxfile&gt;&#10;"><defs/><g><g data-cell-id="0"><g data-cell-id="1"><g data-cell-id="t7mp77yQojYmi_NyxcLW-1"/><g data-cell-id="uPfmGPlykU61HGHRCfBv-1"/><g data-cell-id="uPfmGPlykU61HGHRCfBv-2"/><g data-cell-id="uPfmGPlykU61HGHRCfBv-3"/><g data-cell-id="uPfmGPlykU61HGHRCfBv-4"><g><path d="M 25.88 1 L 25.88 21.93 L 45.19 21.93 C 45.85 13.94 45.16 6.57 45.16 6.57 C 45.16 6.57 40.57 9.62 33.53 5.79 C 30.89 4.35 28.31 2.77 25.88 1 Z M 21 1.03 C 18.57 2.8 16.02 4.38 13.38 5.79 C 6.28 9.59 1.69 6.54 1.69 6.54 C 1.69 6.54 1 13.91 1.66 21.9 L 21 21.9 Z M 2.26 26.81 C 2.86 30.38 3.79 33.82 5.29 36.49 C 10.05 44.99 17.25 48.85 21 50.38 L 21 26.81 Z M 25.94 26.9 L 25.94 50.5 C 27.62 49.81 29.21 48.97 30.74 48.01 L 30.71 38.07 C 30.71 36.87 31.7 35.89 32.9 35.89 L 32.96 35.89 L 32.96 34.84 C 32.96 31.04 36.05 27.92 39.88 27.92 C 41.44 27.92 42.94 28.43 44.17 29.39 C 44.35 28.58 44.5 27.74 44.65 26.9 Z M 39.97 30.2 C 37.31 30.2 35.12 32.35 35.12 35.05 C 35.12 35.35 35.15 35.65 35.21 35.92 L 37.19 35.92 L 37.19 34.96 C 37.19 33.46 38.42 32.23 39.94 32.23 C 41.44 32.23 42.7 33.46 42.7 34.96 L 42.7 35.92 L 44.71 35.92 C 44.77 35.62 44.8 35.32 44.8 35.05 C 44.8 32.38 42.64 30.2 39.97 30.2 Z M 34.04 37.5 C 33.14 37.5 32.42 38.22 32.42 39.12 L 32.42 48.52 C 32.42 49.42 33.14 50.14 34.04 50.14 L 45.85 50.14 C 46.75 50.14 47.47 49.42 47.47 48.52 L 47.47 39.12 C 47.5 38.22 46.75 37.5 45.85 37.5 Z M 39.92 40.32 C 41.02 40.32 41.92 41.22 41.92 42.32 C 41.98 43.04 41.56 43.7 40.96 44.06 L 40.96 46.43 C 40.96 46.94 40.54 47.36 40.03 47.36 L 39.85 47.36 C 39.35 47.36 38.93 46.94 38.93 46.43 L 38.93 44.06 C 38.3 43.7 37.91 43.04 37.91 42.32 C 37.91 41.79 38.12 41.28 38.49 40.91 C 38.87 40.53 39.38 40.32 39.92 40.32 Z" fill="#036897" stroke="#ffffff" stroke-width="2" stroke-miterlimit="10" pointer-events="all" style="fill: rgb(3, 104, 151); stroke: rgb(255, 255, 255);"/></g></g></g></g></g></svg>